<?xml version="1.0" encoding="UTF-8" standalone="no"?>
<!-- Created with Inkscape (http://www.inkscape.org/) -->

<svg
   version="1.1"
   id="svg1"
   width="726.23999"
   height="167.61333"
   viewBox="0 0 726.23999 167.61333"
   sodipodi:docname="Logo_Final (1).eps"
   xmlns:inkscape="http://www.inkscape.org/namespaces/inkscape"
   xmlns:sodipodi="http://sodipodi.sourceforge.net/DTD/sodipodi-0.dtd"
   xmlns="http://www.w3.org/2000/svg"
   xmlns:svg="http://www.w3.org/2000/svg">
  <defs
     id="defs1" />
  <sodipodi:namedview
     id="namedview1"
     pagecolor="#ffffff"
     bordercolor="#000000"
     borderopacity="0.25"
     inkscape:showpageshadow="2"
     inkscape:pageopacity="0.0"
     inkscape:pagecheckerboard="0"
     inkscape:deskcolor="#d1d1d1">
    <inkscape:page
       x="0"
       y="0"
       inkscape:label="1"
       id="page1"
       width="726.23999"
       height="167.61333"
       margin="0"
       bleed="0" />
  </sodipodi:namedview>
  <g
     id="g1"
     inkscape:groupmode="layer"
     inkscape:label="1">
    <g
       id="group-R5">
      <path
         id="path2"
         d="M 126.816,722.871 V 269.488 H 0 V 1257.1 H 126.816 V 843.352 H 697.512 V 1257.1 H 825.918 V 269.488 H 697.512 V 722.871 H 126.816"
         style="fill:#ec5f3a;fill-opacity:1;fill-rule:nonzero;stroke:none"
         transform="matrix(0.13333333,0,0,-0.13333333,0,167.61333)" />
      <path
         id="path3"
         d="m 1258.65,865.543 c -65.54,0 -121.55,-23.258 -168.04,-69.754 -46.51,-46.516 -69.75,-102.512 -69.75,-168.031 0,-65.547 23.24,-121.543 69.75,-168.035 46.49,-46.524 102.5,-69.758 168.04,-69.758 66.58,0 122.86,23.234 168.83,69.758 45.97,46.492 68.96,102.488 68.96,168.035 0,65.519 -22.99,121.515 -68.96,168.031 -45.97,46.496 -102.25,69.754 -168.83,69.754 z m 0,131.578 c 67.62,0 129.72,-16.398 186.27,-49.148 56.52,-32.77 101.45,-77.676 134.74,-134.746 33.29,-57.071 49.94,-118.887 49.94,-185.469 0,-67.645 -16.65,-129.746 -49.94,-186.27 -33.29,-56.55 -78.22,-101.453 -134.74,-134.746 -56.55,-33.289 -118.65,-49.933 -186.27,-49.933 -66.58,0 -128.16,16.644 -184.68,49.933 -56.55,33.293 -101.458,78.196 -134.751,134.746 -33.285,56.524 -49.934,118.625 -49.934,186.27 0,66.582 16.649,128.398 49.934,185.469 33.293,57.07 78.201,101.976 134.751,134.746 56.52,32.75 118.1,49.148 184.68,49.148"
         style="fill:#ec5f3a;fill-opacity:1;fill-rule:nonzero;stroke:none"
         transform="matrix(0.13333333,0,0,-0.13333333,0,167.61333)" />
      <path
         id="path4"
         d="M 2403.18,987.609 V 269.488 h -128.4 v 88.778 c -68.71,-63.407 -147.97,-96.7 -237.79,-99.871 -110.96,-4.215 -196.05,29.05 -255.22,99.871 -59.2,70.793 -88.78,160.625 -88.78,269.492 V 987.609 H 1821.4 V 627.758 c 0,-72.918 17.43,-133.438 52.31,-181.512 34.87,-48.105 88.78,-71.094 161.7,-68.957 48.59,2.102 91.15,14.27 127.61,36.457 36.46,22.195 64.2,48.867 83.23,80.059 19.02,31.16 28.53,58.894 28.53,83.222 v 410.582 h 128.4"
         style="fill:#ec5f3a;fill-opacity:1;fill-rule:nonzero;stroke:none"
         transform="matrix(0.13333333,0,0,-0.13333333,0,167.61333)" />
      <path
         id="path5"
         d="m 2957.98,451.793 c 0,29.578 -15.06,51.523 -45.17,65.789 -30.12,14.27 -76.9,29.328 -140.3,45.176 -62.36,14.785 -113.61,29.855 -153.76,45.187 -40.18,15.301 -75.06,38.563 -104.63,69.746 -29.6,31.161 -45.45,72.645 -47.56,124.442 -2.13,46.488 13.2,89.019 45.97,127.613 32.75,38.567 88.78,57.863 168.04,57.863 h 374.11 v -120.48 h -331.31 c -35.94,0 -65.54,-4.238 -88.77,-12.684 -23.26,-8.472 -34.88,-25.363 -34.88,-50.73 -1.06,-26.426 12.93,-46.516 42.01,-60.238 29.06,-13.747 75.3,-28.532 138.71,-44.379 63.4,-16.926 115.45,-33.293 156.14,-49.153 40.68,-15.847 76.09,-39.629 106.21,-71.336 30.13,-31.699 45.7,-73.468 46.78,-125.234 1.03,-46.516 -14.56,-88.77 -46.78,-126.816 -32.25,-38.047 -87.97,-57.071 -167.25,-57.071 h -397.88 v 118.895 h 355.09 c 83.48,0 125.23,21.125 125.23,63.41"
         style="fill:#ec5f3a;fill-opacity:1;fill-rule:nonzero;stroke:none"
         transform="matrix(0.13333333,0,0,-0.13333333,0,167.61333)" />
      <path
         id="path6"
         d="m 3350.31,461.305 c 45.97,-46.516 102.25,-69.746 168.84,-69.746 65.5,0 121.51,23.23 168.03,69.746 46.49,46.492 69.75,102.5 69.75,168.035 0,65.519 -23.26,121.519 -69.75,168.039 -46.52,46.488 -102.53,69.75 -168.03,69.75 -66.59,0 -122.87,-23.262 -168.84,-69.75 -45.97,-46.52 -68.96,-102.52 -68.96,-168.039 0,-65.535 22.99,-121.543 68.96,-168.035 z m 42.8,509.656 c 40.67,17.437 82.69,26.676 126.04,27.742 66.57,1.039 128.12,-15.058 184.67,-48.351 56.53,-33.289 101.46,-78.465 134.75,-135.536 33.29,-57.07 49.94,-118.894 49.94,-185.476 0,-67.645 -16.65,-129.988 -49.94,-187.059 -33.29,-57.07 -78.22,-102.246 -134.75,-135.539 -56.55,-33.289 -118.1,-49.394 -184.67,-48.347 -88.78,1.062 -168.04,34.871 -237.8,101.453 V 0 h -128.41 v 987.609 h 128.41 v -88.777 c 33.81,30.641 71.07,54.695 111.76,72.129"
         style="fill:#ec5f3a;fill-opacity:1;fill-rule:nonzero;stroke:none"
         transform="matrix(0.13333333,0,0,-0.13333333,0,167.61333)" />
      <path
         id="path7"
         d="m 3955.06,269.488 h 126.83 v 718.121 h -126.83 z m 122.07,916.272 c 15.85,-15.85 23.78,-35.42 23.78,-58.65 0,-22.19 -7.93,-41.22 -23.78,-57.07 -15.86,-15.85 -35.42,-23.78 -58.66,-23.78 -22.19,0 -41.21,7.93 -57.06,23.78 -15.86,15.85 -23.78,34.88 -23.78,57.07 0,23.23 7.92,42.8 23.78,58.65 15.85,15.86 34.87,23.78 57.06,23.78 23.24,0 42.8,-7.92 58.66,-23.78"
         style="fill:#ec5f3a;fill-opacity:1;fill-rule:nonzero;stroke:none"
         transform="matrix(0.13333333,0,0,-0.13333333,0,167.61333)" />
      <path
         id="path8"
         d="m 4650.97,792.621 c -31.71,58.106 -77.16,86.641 -136.34,85.602 -54.96,-1.063 -103.31,-26.7 -145.04,-76.883 -41.76,-50.207 -62.62,-98.563 -62.62,-145.047 l -1.58,-386.805 h -126.83 v 718.121 h 128.41 v -90.363 c 29.58,30.641 58.38,54.692 86.39,72.129 27.99,17.438 62.62,27.199 103.84,29.328 102.49,8.447 183.89,-28.531 244.13,-110.969 l -90.36,-95.113"
         style="fill:#ec5f3a;fill-opacity:1;fill-rule:nonzero;stroke:none"
         transform="matrix(0.13333333,0,0,-0.13333333,0,167.61333)" />
      <path
         id="path9"
         d="m 5267.63,792.621 c -47.56,48.594 -105.16,72.922 -172.79,72.922 -65.54,0 -121.54,-23.258 -168.04,-69.754 -46.51,-46.516 -69.74,-102.512 -69.74,-168.031 0,-22.195 3.16,-43.348 9.51,-63.418 z M 4926.8,459.723 c 46.5,-46.524 102.5,-69.758 168.04,-69.758 44.38,0 85.33,11.348 122.86,34.082 37.5,22.715 66.31,52.57 86.4,89.57 l 112.55,-71.336 c -32.77,-56.027 -77.68,-100.937 -134.75,-134.746 -57.07,-33.828 -119.43,-50.726 -187.06,-50.726 -66.58,0 -128.16,16.644 -184.68,49.933 -56.55,33.293 -101.45,78.196 -134.74,134.746 -33.3,56.524 -49.95,118.625 -49.95,186.27 0,66.582 16.65,128.398 49.95,185.469 33.29,57.07 78.19,101.976 134.74,134.746 56.52,32.75 118.1,49.148 184.68,49.148 88.78,0 167.49,-29.601 236.2,-88.777 23.24,-19.024 43.33,-39.906 60.24,-62.617 16.9,-22.739 35.4,-52.586 55.49,-89.571 L 4926.8,459.723"
         style="fill:#ec5f3a;fill-opacity:1;fill-rule:nonzero;stroke:none"
         transform="matrix(0.13333333,0,0,-0.13333333,0,167.61333)" />
    </g>
  </g>
</svg>
